<svg width="1280" height="480" viewBox="0 0 1280 480" fill="none" xmlns="http://www.w3.org/2000/svg" role="img" aria-labelledby="title desc">
  <title id="title">Skyffla</title>
  <desc id="desc">Gold retro banner for the Skyffla README.</desc>
  <defs>
    <linearGradient id="bg" x1="96" y1="44" x2="1188" y2="436" gradientUnits="userSpaceOnUse">
      <stop stop-color="#E9C66C"/>
      <stop offset="0.55" stop-color="#DAA520"/>
      <stop offset="1" stop-color="#8A6814"/>
    </linearGradient>
    <radialGradient id="glowA" cx="0" cy="0" r="1" gradientUnits="userSpaceOnUse" gradientTransform="translate(242 118) rotate(90) scale(188 332)">
      <stop stop-color="white" stop-opacity="0.42"/>
      <stop offset="1" stop-color="white" stop-opacity="0"/>
    </radialGradient>
    <radialGradient id="glowB" cx="0" cy="0" r="1" gradientUnits="userSpaceOnUse" gradientTransform="translate(1124 92) rotate(90) scale(152 244)">
      <stop stop-color="white" stop-opacity="0.26"/>
      <stop offset="1" stop-color="white" stop-opacity="0"/>
    </radialGradient>
    <filter id="shadow" x="0" y="0" width="1280" height="480" filterUnits="userSpaceOnUse" color-interpolation-filters="sRGB">
      <feDropShadow dx="0" dy="20" stdDeviation="28" flood-color="#201200" flood-opacity="0.18"/>
    </filter>
  </defs>

  <g filter="url(#shadow)">
    <rect x="20" y="20" width="1240" height="440" rx="32" fill="url(#bg)"/>
    <rect x="20" y="20" width="1240" height="440" rx="32" stroke="white" stroke-opacity="0.32"/>
  </g>

  <circle cx="242" cy="118" r="188" fill="url(#glowA)"/>
  <circle cx="1124" cy="92" r="152" fill="url(#glowB)"/>
  <circle cx="1092" cy="376" r="112" fill="white" fill-opacity="0.08"/>

  <g opacity="0.16" stroke="#2D1A00" stroke-width="2">
    <path d="M72 390H1208"/>
    <path d="M72 358H1208"/>
    <path d="M72 326H1208"/>
    <path d="M72 294H1208"/>
    <path d="M72 262H1208"/>
    <path d="M72 230H1208"/>
    <path d="M72 198H1208"/>
    <path d="M72 166H1208"/>
    <path d="M72 134H1208"/>
    <path d="M72 102H1208"/>
  </g>

  <g transform="translate(112 48)" stroke="#2D1A00" stroke-linecap="round" stroke-linejoin="round">
    <path d="M118 22C118 8 130 0 144 0C158 0 170 8 170 22V58C170 74 156 86 144 98V292" stroke-width="11"/>
    <path d="M132 24H156" stroke-width="9"/>
    <path d="M122 50H166" stroke-width="8"/>
    <path d="M144 96C144 112 142 154 142 172C142 198 126 248 118 302" stroke-width="8"/>
    <path d="M118 302L70 334L104 388L176 388L194 338L146 298L118 302Z" fill="#D4B464" fill-opacity="0.45" stroke-width="11"/>
    <path d="M96 346L184 346" stroke-width="7"/>
    <path d="M110 370L178 370" stroke-width="6"/>
  </g>

  <g fill="#2D1A00">
    <text x="382" y="188" font-family="'Press Start 2P', 'Courier New', monospace" font-size="74" font-weight="700" letter-spacing="8">SKYFFLA</text>
    <text x="388" y="238" font-family="'Courier New', monospace" font-size="23" font-weight="700" letter-spacing="2.5">CLI FIRST P2P COMMUNICATION FOR THE AGENTIC ERA</text>
  </g>

  <g font-family="'Courier New', monospace" font-size="18" font-weight="700" fill="#2D1A00">
    <rect x="388" y="328" width="178" height="42" rx="21" fill="#FFF7E6" fill-opacity="0.56" stroke="#2D1A00" stroke-opacity="0.18"/>
    <text x="422" y="355">RUST 1.94+</text>
    <rect x="582" y="328" width="212" height="42" rx="21" fill="#FFF7E6" fill-opacity="0.56" stroke="#2D1A00" stroke-opacity="0.18"/>
    <text x="616" y="355">HOMEBREW TAP</text>
  </g>
</svg>
