<?xml version="1.0" standalone="no"?>
<!DOCTYPE svg PUBLIC "-//W3C//DTD SVG 20010904//EN"
 "http://www.w3.org/TR/2001/REC-SVG-20010904/DTD/svg10.dtd">
<svg version="1.0" xmlns="http://www.w3.org/2000/svg"
 width="512.000000pt" height="512.000000pt" viewBox="0 0 512.000000 512.000000"
 preserveAspectRatio="xMidYMid meet">
<metadata>
Created by potrace 1.14, written by Peter Selinger 2001-2017
</metadata>
<g transform="translate(0.000000,512.000000) scale(0.100000,-0.100000)"
fill="#000000" stroke="none">
<path d="M2340 5107 c-45 -16 -44 -16 -80 -24 -17 -3 -40 -17 -51 -32 -19 -24
-20 -34 -14 -121 11 -155 13 -172 19 -240 3 -36 8 -92 11 -125 17 -206 55
-330 114 -376 24 -19 33 -35 36 -65 14 -123 23 -1481 11 -1734 -10 -217 -18
-260 -96 -506 -23 -71 -47 -155 -55 -188 -8 -32 -15 -59 -17 -61 -7 -6 -107
-34 -153 -44 -70 -14 -182 -63 -216 -96 -27 -25 -32 -40 -32 -105 0 -41 12
-125 30 -205 4 -16 8 -37 9 -45 2 -8 5 -28 8 -45 3 -16 8 -52 11 -80 4 -27 13
-81 21 -120 7 -38 16 -89 19 -112 13 -106 16 -128 30 -200 3 -16 8 -44 10 -63
1 -19 6 -64 10 -100 8 -69 12 -122 19 -236 4 -74 27 -134 64 -167 19 -17 65
-17 137 0 11 3 43 9 70 14 28 4 57 10 65 12 8 2 33 7 55 11 101 18 369 69 455
86 52 10 111 21 130 24 19 3 71 12 115 21 44 9 96 19 115 22 51 8 67 18 96 68
l26 45 -32 72 c-18 40 -36 82 -41 93 -19 44 -60 188 -83 291 -28 123 -27 119
-55 269 -12 60 -23 117 -26 125 -2 8 -7 29 -10 45 -29 169 -91 363 -133 421
-35 48 -161 70 -287 50 -22 -3 -68 -9 -102 -13 l-63 -6 15 49 c16 49 83 301
91 339 2 11 7 44 10 74 3 30 7 57 9 61 2 3 7 43 11 90 12 129 3 1330 -12 1660
-9 218 -9 233 7 239 38 12 109 114 131 186 21 73 28 318 14 579 -6 120 -16
140 -81 163 -45 15 -293 15 -335 0z m268 -22 c3 -3 -11 -5 -31 -5 -20 0 -39
-5 -42 -11 -10 -15 2 -23 22 -14 10 5 32 9 49 10 17 1 36 5 41 8 4 3 20 -3 33
-13 21 -16 23 -22 13 -39 -10 -15 -10 -20 0 -24 9 -3 9 -10 0 -28 -9 -20 -22
-27 -67 -35 -30 -6 -61 -7 -68 -3 -19 12 29 26 74 22 22 -2 38 0 38 7 0 10 -3
11 -37 14 -10 1 -24 5 -31 10 -7 4 -65 8 -129 8 -112 0 -173 10 -173 29 0 5 5
9 12 9 6 0 8 3 4 8 -4 4 -13 7 -18 7 -6 0 -13 5 -15 12 -3 7 11 15 34 19 21 3
53 9 71 13 38 7 212 4 220 -4z m-327 -82 c12 -32 13 -37 34 -157 15 -84 36
-136 72 -172 8 -8 12 -21 9 -29 -3 -8 -1 -17 4 -20 6 -4 10 1 10 11 0 13 6 15
31 10 17 -3 40 -6 50 -6 15 0 19 -7 19 -33 0 -18 7 -43 16 -55 9 -13 13 -29
10 -37 -3 -8 -1 -15 4 -15 11 0 13 52 4 99 -4 19 -11 28 -18 24 -7 -4 -8 -3
-1 4 6 5 26 16 45 23 19 7 43 20 52 28 15 12 18 12 22 1 2 -8 7 -21 9 -29 3
-8 6 3 6 26 1 22 10 59 21 82 11 22 20 58 20 78 0 44 11 40 12 -5 1 -17 5 -28
11 -24 10 6 4 -107 -11 -220 -5 -32 -4 -61 0 -63 11 -7 0 -123 -13 -144 -6
-10 -7 -1 -5 28 2 23 1 42 -3 42 -4 0 -8 -16 -9 -37 -4 -105 -21 -149 -72
-182 -22 -15 -24 -15 -17 2 3 9 2 17 -3 17 -5 0 -11 -9 -15 -19 -3 -11 -13
-22 -21 -25 -13 -5 -15 0 -11 29 6 46 -9 45 -17 -1 -6 -32 -10 -35 -34 -30
-56 10 -72 19 -72 37 0 11 -5 19 -11 19 -5 0 -8 -4 -4 -9 3 -5 1 -12 -4 -16
-10 -5 -33 27 -30 42 3 20 -2 27 -10 14 -12 -19 -29 40 -25 87 2 21 -1 30 -7
26 -7 -4 -7 2 1 15 6 12 9 30 7 39 -3 12 -5 11 -6 -5 0 -13 -5 -23 -9 -23 -5
0 -8 26 -7 58 1 31 -3 65 -8 76 -5 11 -5 16 0 13 5 -3 10 15 11 41 2 31 -1 42
-7 33 -5 -7 -6 -21 -4 -31 3 -10 0 -21 -6 -24 -7 -5 -11 13 -12 56 -2 80 -6
142 -13 193 -9 65 -16 185 -10 185 2 0 9 -12 15 -27z m177 -28 c-8 -7 -129
-12 -133 -5 -8 13 2 15 70 12 37 -2 65 -5 63 -7z m272 -45 c0 -34 -2 -39 -14
-28 -10 9 -11 20 -4 40 14 38 18 35 18 -12z m-240 15 c-10 -12 -9 -15 6 -16
11 0 14 -3 6 -6 -7 -3 -19 1 -28 8 -12 10 -12 14 -2 20 21 14 31 10 18 -6z
m118 -69 c5 -44 -17 -128 -44 -167 -22 -32 -29 -36 -73 -38 -82 -3 -136 57
-147 167 l-7 59 113 1 c62 1 115 3 117 6 13 13 38 -4 41 -28z m56 -98 c-3 -7
-17 -22 -31 -32 l-26 -19 23 31 c24 32 44 43 34 20z m-407 -40 c-3 -7 -5 -2
-5 12 0 14 2 19 5 13 2 -7 2 -19 0 -25z m259 -723 c-1 -74 0 -133 3 -129 7 6
8 36 10 168 1 108 16 106 17 -2 2 -133 4 -152 13 -152 4 0 5 18 1 40 -5 27 -3
45 6 57 12 17 13 17 13 -2 0 -11 2 -78 4 -150 4 -130 2 -159 -13 -150 -4 2 -8
-26 -9 -63 -1 -37 -3 -82 -5 -99 -1 -18 1 -33 6 -33 4 0 8 17 9 38 0 20 1 60
2 89 0 29 5 50 9 47 9 -6 1 -362 -9 -404 -9 -38 -10 -160 -1 -160 4 0 8 12 8
28 0 18 3 23 9 14 12 -20 1 -64 -15 -58 -8 3 -14 -1 -14 -10 0 -10 6 -14 15
-10 8 3 15 1 15 -4 0 -6 -7 -10 -15 -10 -11 0 -15 -11 -13 -42 l1 -43 4 38 c2
20 8 37 13 37 4 0 6 -19 3 -42 -2 -23 -5 -57 -6 -75 -1 -18 -6 -33 -11 -33 -4
0 -6 7 -2 15 3 8 2 15 -3 15 -14 0 -25 -150 -12 -163 6 -6 11 -28 11 -48 0
-32 -3 -36 -20 -32 -13 4 -27 -2 -39 -16 -23 -26 -27 -26 -34 -2 -3 12 1 22 9
25 8 3 14 17 14 31 0 17 4 24 11 19 8 -5 10 14 7 64 -2 39 0 68 4 66 14 -9 17
14 3 26 -9 7 -15 27 -15 44 1 17 1 73 0 124 0 51 2 98 6 104 4 6 1 9 -7 6 -7
-2 -15 -22 -17 -44 -6 -59 -12 -54 -12 10 0 32 5 66 10 76 7 13 7 21 0 25 -8
5 -7 11 0 20 13 15 15 138 3 158 -4 7 1 6 11 -3 17 -13 18 -9 12 85 -3 55 -9
116 -13 135 -9 48 -9 395 1 445 20 105 26 86 22 -70z m57 77 c2 -23 2 -44 -2
-46 -3 -2 -7 19 -9 47 -3 61 4 60 11 -1z m-89 -4 c-4 -13 -11 -41 -15 -63 -4
-25 -7 -31 -8 -15 -1 40 11 100 21 100 5 0 6 -10 2 -22z m-68 -23 c1 -8 -2
-15 -7 -15 -5 0 -9 10 -9 22 0 23 12 17 16 -7z m4 -46 c0 -5 -4 -9 -10 -9 -5
0 -10 7 -10 16 0 8 5 12 10 9 6 -3 10 -10 10 -16z m-13 -51 c-3 -7 -5 -2 -5
12 0 14 2 19 5 13 2 -7 2 -19 0 -25z m37 -13 c-4 -8 -8 -15 -10 -15 -2 0 -4 7
-4 15 0 8 4 15 10 15 5 0 7 -7 4 -15z m-28 -43 c3 -17 1 -32 -3 -35 -5 -3 -9
12 -9 34 -1 45 5 45 12 1z m51 -74 c-3 -7 -5 -2 -5 12 0 14 2 19 5 13 2 -7 2
-19 0 -25z m-31 -177 c0 -82 -4 -147 -8 -144 -5 2 -6 9 -3 14 4 5 2 9 -3 9
-10 0 -8 190 2 238 4 17 9 32 10 32 1 0 2 -67 2 -149z m44 -35 c0 -26 -6 -18
-14 19 -5 22 -4 26 4 15 5 -8 10 -24 10 -34z m8 -67 c0 -17 -1 -29 -4 -27 -7
8 -12 68 -4 63 4 -2 7 -18 8 -36z m-1 -71 c-3 -7 -5 -2 -5 12 0 14 2 19 5 13
2 -7 2 -19 0 -25z m-56 -10 c1 -7 3 -105 4 -218 4 -248 4 -238 6 -275 1 -16 1
-46 1 -65 -1 -19 -3 -85 -4 -147 -2 -61 -6 -115 -10 -119 -5 -4 -8 112 -9 257
0 145 -1 335 -2 422 -1 86 1 157 6 157 4 0 7 -6 8 -12z m56 -30 c-3 -8 -6 -5
-6 6 -1 11 2 17 5 13 3 -3 4 -12 1 -19z m-15 -88 c3 -16 1 -30 -4 -30 -4 0 -8
14 -8 30 0 17 2 30 4 30 2 0 6 -13 8 -30z m3 -50 c3 -5 1 -10 -4 -10 -6 0 -11
5 -11 10 0 6 2 10 4 10 3 0 8 -4 11 -10z m5 -24 c0 -3 -4 -8 -10 -11 -5 -3
-10 -1 -10 4 0 6 5 11 10 11 6 0 10 -2 10 -4z m-2 -336 c-2 -17 -5 -15 -14 15
-10 32 -10 35 3 22 8 -8 13 -24 11 -37z m118 -82 c-3 -35 -7 -84 -8 -110 0
-27 -5 -48 -9 -48 -8 0 -4 117 5 175 2 11 4 26 5 33 0 6 3 12 7 12 3 0 3 -28
0 -62z m-109 10 c-3 -7 -5 -2 -5 12 0 14 2 19 5 13 2 -7 2 -19 0 -25z m80 -10
c-3 -8 -6 -5 -6 6 -1 11 2 17 5 13 3 -3 4 -12 1 -19z m-4 -33 c-3 -9 -8 -14
-10 -11 -3 3 -2 9 2 15 9 16 15 13 8 -4z m-101 -70 c3 -13 1 -22 -3 -19 -9 5
-13 44 -5 44 2 0 6 -11 8 -25z m108 -153 c23 -35 24 -45 24 -177 0 -158 -6
-222 -40 -408 -9 -48 -19 -85 -22 -83 -7 8 -26 -32 -47 -95 -19 -58 -35 -84
-35 -57 0 9 4 19 9 22 5 3 11 16 14 28 3 13 12 46 20 73 15 45 15 48 0 30
l-15 -20 5 20 c3 11 9 38 13 60 4 22 9 45 10 50 2 6 10 46 18 90 33 187 43
327 24 346 -28 28 -35 51 -27 88 10 44 6 49 -18 22 -15 -18 -18 -41 -19 -134
-2 -206 -27 -349 -100 -560 -19 -56 -36 -106 -38 -112 -1 -5 -8 -28 -16 -50
-13 -38 -16 -63 -19 -152 0 -24 -5 -43 -9 -43 -19 0 -3 148 27 242 17 54 34
106 39 115 5 10 19 54 30 98 48 180 63 293 63 464 -1 98 2 119 19 147 34 54
52 53 90 -4z m-130 -3 c0 -10 -4 -19 -10 -19 -5 0 -10 12 -10 26 0 14 4 23 10
19 6 -3 10 -15 10 -26z m-23 -141 c-3 -8 -6 -5 -6 6 -1 11 2 17 5 13 3 -3 4
-12 1 -19z m0 -50 c-3 -7 -5 -2 -5 12 0 14 2 19 5 13 2 -7 2 -19 0 -25z m-50
-400 c-3 -8 -6 -5 -6 6 -1 11 2 17 5 13 3 -3 4 -12 1 -19z m-9 -56 c-19 -45
-26 -46 -15 -3 6 22 14 38 19 35 4 -3 2 -17 -4 -32z m162 -83 c-12 -41 -24
-53 -14 -14 7 32 13 45 19 45 2 0 0 -14 -5 -31z m-56 -11 c-9 -18 -19 -35 -22
-38 -8 -9 10 45 20 58 18 22 19 13 2 -20z m26 -75 c-11 -17 -11 -17 -6 0 3 10
6 24 7 30 0 9 2 9 5 0 3 -7 0 -20 -6 -30z m-35 -99 c0 -21 6 -43 13 -47 6 -4
12 -15 12 -22 0 -8 5 -15 11 -15 6 0 8 7 4 18 -4 11 -3 14 4 7 10 -10 18 -121
10 -129 -3 -3 -6 7 -7 22 -4 44 -8 61 -15 68 -4 4 -4 -15 -1 -42 4 -27 13 -55
22 -61 11 -9 12 -13 3 -13 -9 0 -11 -13 -8 -45 2 -30 0 -45 -8 -45 -8 0 -11
-15 -10 -40 1 -22 -1 -38 -4 -34 -7 7 -8 13 -10 57 l-1 32 -15 -29 c-17 -32
-20 -49 -5 -26 8 12 10 10 10 -8 0 -13 -4 -21 -8 -18 -5 3 -9 -1 -9 -9 0 -8 4
-12 9 -9 11 7 38 -15 38 -30 0 -6 -5 -3 -11 7 -11 19 -29 14 -29 -9 0 -10 5
-12 13 -8 8 6 8 3 -2 -9 -8 -10 -12 -32 -9 -56 2 -22 0 -37 -4 -35 -5 3 -8 16
-8 29 0 13 -4 27 -10 30 -5 3 -10 12 -10 18 0 7 4 6 10 -3 6 -9 10 -10 10 -3
0 6 -4 15 -10 18 -5 3 -10 21 -11 38 0 30 -1 31 -10 9 -5 -13 -6 -29 -2 -35 3
-7 2 -8 -3 -4 -5 5 -10 23 -10 40 -1 18 -3 57 -4 87 -1 30 -4 47 -7 38 -11
-43 -19 -11 -18 72 1 49 -2 96 -7 102 -5 8 -8 2 -8 -17 -2 -70 -12 -180 -17
-185 -5 -5 3 189 10 220 3 17 33 49 63 66 28 16 24 40 -6 35 -14 -1 -28 -8
-32 -15 -6 -8 -8 -7 -8 2 0 7 8 24 18 37 17 23 18 23 47 6 25 -14 30 -23 30
-57z m217 -136 c2 -42 0 -75 -3 -72 -3 2 -6 43 -7 91 0 103 6 92 10 -19z m-82
27 c3 -30 2 -55 -2 -55 -4 0 -8 15 -9 33 0 17 -3 45 -5 62 -3 16 -2 26 2 22 5
-4 11 -32 14 -62z m56 -21 c5 -100 -5 -90 -12 12 -3 43 -2 75 2 71 4 -4 9 -41
10 -83z m51 -47 c-2 -23 -3 -1 -3 48 0 50 1 68 3 42 2 -26 2 -67 0 -90z m108
111 c-6 -51 -16 -102 -21 -107 -3 -3 -3 8 0 24 2 17 5 47 5 68 1 20 5 37 10
37 4 0 7 -10 6 -22z m26 -38 l-9 -45 -1 37 c-1 20 2 44 6 54 11 29 14 2 4 -46z
m-292 15 c3 22 19 -23 26 -70 5 -36 4 -46 -4 -35 -6 8 -11 32 -11 53 0 20 -4
37 -9 37 -5 0 -6 -28 -4 -62 3 -35 3 -60 -1 -57 -3 3 -8 43 -11 90 -3 54 -1
75 4 59 5 -14 10 -20 10 -15z m229 4 c1 -17 -1 -28 -6 -25 -7 4 -8 37 -3 54 3
9 7 -3 9 -29z m-33 -48 c1 -33 -1 -65 -5 -72 -4 -6 -7 23 -7 64 1 89 9 94 12
8z m-465 -11 c0 -78 -14 -78 -18 0 -1 36 2 60 8 60 6 0 10 -26 10 -60z m-40
-52 c0 -56 -2 -99 -4 -97 -9 9 -13 199 -5 199 5 0 9 -46 9 -102z m-62 67 c1
-14 -2 -25 -6 -25 -7 0 -8 31 -3 48 3 8 7 -2 9 -23z m19 -37 c-2 -13 -4 -3 -4
22 0 25 2 35 4 23 2 -13 2 -33 0 -45z m430 20 c-3 -7 -5 -2 -5 12 0 14 2 19 5
13 2 -7 2 -19 0 -25z m-483 -40 c4 -26 8 -53 10 -60 3 -7 7 -26 10 -43 5 -23
4 -26 -4 -13 -5 9 -17 51 -25 95 -18 92 -17 90 -6 78 5 -6 12 -31 15 -57z
m636 52 c0 -5 -2 -10 -4 -10 -3 0 -8 5 -11 10 -3 6 -1 10 4 10 6 0 11 -4 11
-10z m-741 -100 c11 -46 18 -86 16 -88 -5 -5 -6 -3 -29 90 -9 36 -16 72 -16
79 0 27 10 -1 29 -81z m71 23 c6 -38 13 -79 16 -93 3 -16 -1 -12 -9 10 -14 34
-31 150 -23 150 2 0 9 -30 16 -67z m-96 -76 c10 -42 11 -59 2 -64 -6 -3 -8 -3
-4 1 4 5 3 19 -2 32 -13 32 -20 69 -25 124 l-4 45 10 -40 c6 -22 16 -66 23
-98z m306 98 c0 -19 -4 -35 -8 -35 -5 0 -8 12 -6 28 3 40 4 42 9 42 3 0 5 -16
5 -35z m456 15 c0 -12 -4 -16 -9 -11 -5 5 -6 14 -3 20 10 15 12 14 12 -9z
m-705 -2 c0 -7 2 -22 4 -33 10 -50 16 -109 11 -104 -3 2 -8 20 -11 39 -3 19
-10 52 -14 73 -5 21 -5 37 0 37 5 0 9 -6 10 -12z m-107 -45 c3 -21 9 -49 12
-63 4 -20 3 -22 -5 -9 -6 9 -13 31 -16 50 -3 19 -8 42 -11 53 -4 11 -2 16 4
12 5 -3 12 -23 16 -43z m641 38 c3 -5 2 -12 -3 -15 -5 -3 -9 1 -9 9 0 17 3 19
12 6z m-671 -60 c-6 -7 -11 2 -17 34 l-6 30 13 -30 c8 -16 12 -32 10 -34z
m863 37 c-3 -8 -6 -5 -6 6 -1 11 2 17 5 13 3 -3 4 -12 1 -19z m-897 -42 c0
-26 -6 -18 -14 19 -5 22 -4 26 4 15 5 -8 10 -24 10 -34z m285 34 c3 -5 1 -10
-4 -10 -6 0 -11 5 -11 10 0 6 2 10 4 10 3 0 8 -4 11 -10z m595 0 c0 -5 -4 -10
-10 -10 -5 0 -10 5 -10 10 0 6 5 10 10 10 6 0 10 -4 10 -10z m-464 -35 c-1 -8
-5 -17 -8 -21 -5 -4 -4 16 1 34 3 9 9 -1 7 -13z m457 -1 c28 -9 50 -71 72
-194 2 -14 11 -59 20 -100 9 -41 18 -93 21 -115 9 -64 12 -75 34 -175 12 -52
24 -106 26 -119 10 -52 69 -210 104 -281 21 -41 63 -107 94 -147 31 -39 56
-73 56 -75 0 -2 -13 -5 -29 -6 -38 -3 -54 14 -75 82 -10 31 -20 56 -22 56 -7
0 3 -43 24 -98 25 -64 4 -75 -25 -12 -10 22 -21 40 -25 40 -13 0 -9 -13 12
-47 l19 -32 -32 -10 c-27 -8 -95 -23 -213 -45 -12 -3 -39 -7 -60 -10 -22 -4
-99 -18 -171 -33 -73 -15 -135 -24 -138 -21 -3 3 -7 38 -9 79 -2 41 -5 82 -5
92 -1 9 -5 17 -11 17 -5 0 -8 -6 -5 -12 2 -7 6 -50 9 -95 4 -78 -3 -109 -20
-81 -8 12 -9 24 -19 193 -3 61 -10 111 -14 113 -5 2 -7 12 -4 23 3 10 0 26 -7
34 -8 10 -9 15 -2 15 6 0 9 8 8 18 -2 9 -7 51 -10 92 -15 160 -24 178 -20 35
6 -166 11 -216 21 -224 12 -9 13 -18 19 -170 4 -95 2 -141 -5 -145 -6 -4 -12
-4 -12 1 -2 13 -6 62 -13 163 -8 121 -16 183 -23 190 -3 3 -3 -29 1 -70 17
-196 18 -290 4 -290 -10 0 -14 29 -16 130 -2 72 -7 141 -12 153 -6 14 -8 -31
-5 -130 3 -94 1 -154 -5 -158 -10 -6 -11 -5 -15 60 -6 95 -25 296 -31 325 -1
8 -3 19 -3 24 -1 5 -9 2 -19 -7 -15 -14 -19 -15 -19 -2 0 8 4 12 9 9 4 -3 8 2
8 11 0 9 5 13 10 10 6 -3 10 1 10 10 0 10 -5 13 -12 9 -8 -5 -7 0 2 11 8 10
10 16 4 12 -7 -4 -10 7 -9 34 1 22 -4 82 -11 132 -7 51 -15 122 -19 159 -6 68
-10 97 -19 126 -3 9 -8 49 -12 87 -3 39 -8 77 -9 85 -2 8 -6 40 -10 70 -9 71
-14 90 -26 90 -6 0 -8 -3 -6 -7 3 -5 8 -33 11 -63 16 -145 25 -220 31 -250 7
-42 36 -252 41 -307 3 -30 2 -53 -3 -53 -6 0 -10 6 -10 13 -2 39 -13 135 -17
147 -3 8 -7 38 -10 65 -4 28 -8 68 -11 90 -3 22 -7 59 -10 83 -9 76 -17 137
-21 157 -2 11 -7 48 -10 83 -7 60 -6 62 17 63 13 1 40 3 59 5 33 3 37 0 62
-45 15 -26 27 -56 27 -67 0 -21 7 -78 17 -136 3 -21 10 -38 16 -38 5 0 7 8 4
18 -13 42 -28 142 -22 142 5 0 76 -117 76 -127 1 -10 36 -53 44 -53 3 0 6 7 6
15 0 8 6 12 13 9 18 -6 39 51 67 176 40 185 42 187 134 199 52 7 97 5 129 -5z
m-493 -25 c0 -5 -4 -9 -8 -9 -5 0 -9 7 -9 15 0 8 4 12 9 9 4 -3 8 -9 8 -15z
m-396 -19 c2 -14 18 -88 35 -165 31 -145 39 -188 40 -217 1 -10 6 -18 12 -18
5 0 8 4 5 9 -3 5 -8 27 -11 50 -3 22 -12 73 -21 113 -9 40 -22 102 -30 138 -8
36 -14 76 -14 90 l0 25 20 -30 c11 -16 20 -42 20 -57 0 -16 5 -28 11 -28 6 0
8 9 4 21 -6 18 -5 19 14 7 12 -7 21 -15 21 -18 0 -3 7 -43 15 -90 8 -47 18
-105 21 -130 3 -25 9 -70 14 -100 11 -65 28 -181 35 -248 3 -26 8 -57 10 -70
2 -12 7 -62 10 -110 4 -48 8 -97 10 -109 4 -27 15 -212 20 -330 3 -83 1 -93
-16 -98 -25 -8 -34 -1 -65 51 -17 29 -27 63 -29 99 -2 30 -6 78 -9 107 -3 29
-8 87 -11 128 -4 41 -8 86 -10 100 -3 14 -9 63 -14 110 -6 47 -12 94 -14 105
-6 24 -16 89 -22 130 -4 29 -13 80 -20 120 -2 11 -6 38 -10 60 -3 22 -10 63
-16 91 -5 28 -12 62 -14 77 -3 15 -10 55 -16 90 -16 91 -17 107 -8 113 5 3 9
-9 9 -25 0 -17 4 -31 8 -31 4 0 6 17 4 38 -5 40 4 42 12 2z m503 -15 c0 -8 -4
-15 -9 -15 -4 0 -8 7 -8 15 0 8 4 15 8 15 5 0 9 -7 9 -15z m-37 -35 c0 -22 -2
-40 -4 -40 -2 0 -6 18 -8 40 -2 22 0 40 4 40 5 0 8 -18 8 -40z m40 -11 c0 -5
-4 -9 -8 -9 -5 0 -9 7 -9 15 0 8 4 12 9 9 4 -3 8 -9 8 -15z m-294 -22 c1 -7 4
-37 8 -67 4 -30 11 -82 16 -115 5 -33 12 -78 15 -100 3 -22 8 -51 10 -65 3
-14 7 -47 10 -75 3 -27 8 -61 10 -75 2 -14 7 -56 11 -95 3 -38 8 -79 10 -90 6
-32 14 -96 18 -145 2 -25 7 -61 10 -80 5 -33 7 -63 22 -272 4 -53 2 -78 -5
-78 -6 0 -12 10 -12 23 -1 12 -3 33 -4 47 -1 14 -5 68 -9 120 -4 52 -9 120
-11 150 -3 30 -7 87 -10 125 -4 39 -8 88 -11 110 -3 22 -7 63 -9 91 -3 28 -12
96 -21 150 -8 54 -17 117 -19 139 -4 34 -16 116 -31 205 -12 69 -15 124 -8
117 4 -4 9 -13 10 -20z m-23 -96 c-7 -10 -12 8 -17 59 l-6 55 13 -55 c7 -30
11 -57 10 -59z m249 65 c2 -19 1 -33 -3 -30 -4 2 -9 19 -11 38 -2 19 -1 33 3
30 4 -2 9 -19 11 -38z m545 22 c-3 -8 -6 -5 -6 6 -1 11 2 17 5 13 3 -3 4 -12
1 -19z m-490 -50 c-2 -13 -4 -3 -4 22 0 25 2 35 4 23 2 -13 2 -33 0 -45z
m-347 38 c0 -8 3 -22 7 -32 4 -11 3 -15 -4 -11 -13 8 -23 57 -12 57 5 0 9 -6
9 -14z m860 -56 c0 -5 -4 -10 -10 -10 -5 0 -10 5 -10 10 0 6 5 10 10 10 6 0
10 -4 10 -10z m97 -27 c-3 -10 -5 -4 -5 12 0 17 2 24 5 18 2 -7 2 -21 0 -30z
m51 1 c-3 -14 -5 -12 -10 9 -3 19 -2 25 4 19 6 -6 8 -18 6 -28z m-990 -44 c0
-22 -1 -22 -8 5 -4 17 -8 39 -8 50 0 16 2 15 8 -5 4 -14 8 -36 8 -50z m365 40
c-3 -12 -8 -19 -11 -16 -5 6 5 36 12 36 2 0 2 -9 -1 -20z m-333 -37 c0 -43 -5
-41 -13 5 -4 18 -2 32 3 32 6 0 10 -16 10 -37z m357 -25 c-2 -13 -4 -3 -4 22
0 25 2 35 4 23 2 -13 2 -33 0 -45z m508 52 c3 -5 1 -10 -4 -10 -6 0 -11 5 -11
10 0 6 2 10 4 10 3 0 8 -4 11 -10z m-48 -47 c-3 -10 -5 -4 -5 12 0 17 2 24 5
18 2 -7 2 -21 0 -30z m158 -3 c3 -5 1 -10 -4 -10 -6 0 -11 5 -11 10 0 6 2 10
4 10 3 0 8 -4 11 -10z m-45 -20 c0 -11 -2 -20 -4 -20 -2 0 -6 9 -9 20 -3 11
-1 20 4 20 5 0 9 -9 9 -20z m-950 -10 c0 -11 -2 -20 -4 -20 -2 0 -6 9 -9 20
-3 11 -1 20 4 20 5 0 9 -9 9 -20z m897 -12 c-3 -7 -5 -2 -5 12 0 14 2 19 5 13
2 -7 2 -19 0 -25z m-866 0 c0 -13 3 -36 5 -53 2 -16 6 -43 8 -60 3 -16 12 -77
21 -134 9 -57 14 -106 11 -108 -7 -7 -18 55 -42 227 -3 25 -9 69 -13 98 -4 28
-4 52 1 52 4 0 8 -10 9 -22z m976 -50 c-3 -7 -5 -2 -5 12 0 14 2 19 5 13 2 -7
2 -19 0 -25z m-38 -25 c1 -7 -3 -13 -7 -13 -4 0 -8 15 -9 33 -2 26 0 28 7 12
5 -11 9 -26 9 -32z m-962 5 c-3 -8 -6 -5 -6 6 -1 11 2 17 5 13 3 -3 4 -12 1
-19z m910 -35 c-3 -10 -5 -4 -5 12 0 17 2 24 5 18 2 -7 2 -21 0 -30z m-899
-30 c2 -21 7 -69 13 -108 5 -38 12 -88 16 -110 3 -22 2 -37 -1 -34 -10 9 -16
46 -31 194 -4 33 -8 70 -10 83 -2 12 0 20 4 18 4 -3 8 -22 9 -43z m1016 -12
c7 -28 9 -51 5 -51 -4 0 -11 17 -14 38 -4 20 -9 46 -12 57 -3 11 -3 17 1 14 3
-3 12 -29 20 -58z m-50 -16 c5 -29 4 -36 -3 -25 -6 8 -11 28 -11 44 0 39 6 31
14 -19z m-49 -4 c3 -5 1 -12 -5 -16 -5 -3 -10 1 -10 9 0 18 6 21 15 7z m-38
-68 c1 -24 0 -25 -6 -8 -7 17 -6 35 2 35 2 0 3 -12 4 -27z m117 -62 c-8 -9
-14 6 -18 45 l-5 39 13 -40 c7 -22 12 -42 10 -44z m75 -91 c32 -131 72 -252
113 -339 14 -28 21 -51 17 -51 -10 0 -63 111 -84 175 -33 101 -85 305 -85 337
0 28 11 -7 39 -122z m-169 55 c0 -8 -2 -15 -4 -15 -2 0 -6 7 -10 15 -3 8 -1
15 4 15 6 0 10 -7 10 -15z m68 -67 c5 -27 6 -48 2 -48 -7 0 -21 52 -26 93 -3
35 14 2 24 -45z m-56 17 c3 -14 2 -25 -2 -25 -4 0 -10 11 -12 25 -3 14 -2 25
2 25 4 0 10 -11 12 -25z m-848 -20 c13 -79 27 -198 31 -275 3 -47 7 -107 10
-135 15 -169 16 -233 6 -239 -7 -5 -11 12 -12 51 0 32 -2 78 -3 103 -2 25 -7
95 -11 155 -4 61 -9 126 -11 145 -2 19 -6 55 -8 80 -3 25 -8 70 -11 100 -7 57
0 68 9 15z m961 -15 c12 -61 59 -210 86 -268 38 -84 32 -91 -8 -9 -32 65 -77
203 -89 272 -7 41 3 46 11 5z m-980 -80 c4 -47 9 -88 11 -92 2 -4 0 -9 -6 -13
-6 -4 -11 9 -11 32 -3 60 -7 116 -14 148 -3 18 -2 26 4 20 5 -6 12 -48 16 -95z
m103 -30 c4 0 6 -18 4 -41 -6 -54 -9 -46 -15 31 -2 36 -2 53 0 38 2 -16 7 -28
11 -28z m801 10 c0 -9 -4 -8 -9 5 -5 11 -9 27 -9 35 0 9 4 8 9 -5 5 -11 9 -27
9 -35z m71 -58 c27 -79 100 -223 126 -249 13 -14 19 -33 9 -33 -20 0 -158 282
-171 350 -9 45 9 12 36 -68z m-50 18 c0 -5 15 -41 33 -79 19 -39 30 -68 25
-65 -5 3 -20 31 -34 62 -40 88 -45 104 -34 97 6 -3 10 -10 10 -15z m-911 -82
c-1 -32 11 -219 16 -240 2 -10 -1 -18 -6 -18 -5 0 -9 26 -10 58 0 31 -3 86 -7
122 -7 62 -6 100 4 100 2 0 3 -10 3 -22z m111 -58 c16 -10 35 -336 20 -345
-12 -7 -11 -12 -15 85 -2 41 -6 95 -8 120 -10 87 -16 185 -10 165 3 -11 9 -22
13 -25z m1000 -100 c6 -11 8 -20 6 -20 -3 0 -10 9 -16 20 -6 11 -8 20 -6 20 3
0 10 -9 16 -20z m-1088 -193 c2 -37 0 -67 -4 -67 -5 0 -8 19 -9 43 0 23 -2 57
-3 75 -1 18 1 29 5 25 4 -5 9 -38 11 -76z"/>
<path d="M2554 3868 c3 -13 5 -53 5 -90 1 -38 4 -68 9 -68 4 0 6 24 5 52 -1
29 -2 70 -2 91 -1 20 -5 37 -11 37 -5 0 -8 -10 -6 -22z"/>
<path d="M2510 3845 c0 -14 3 -25 8 -25 4 0 7 11 7 25 0 14 -3 25 -7 25 -5 0
-8 -11 -8 -25z"/>
<path d="M2554 3435 c4 -50 16 -56 13 -7 -1 23 -5 42 -9 42 -4 0 -6 -16 -4
-35z"/>
<path d="M2555 2960 c3 -5 8 -10 11 -10 2 0 4 5 4 10 0 6 -5 10 -11 10 -5 0
-7 -4 -4 -10z"/>
<path d="M2441 1508 c5 -18 9 -48 9 -65 0 -18 5 -33 10 -33 6 0 8 12 5 28 -3
15 -8 44 -11 65 -4 20 -10 37 -15 37 -4 0 -3 -15 2 -32z"/>
<path d="M2476 1464 c4 -32 9 -61 11 -64 3 -3 3 21 0 53 -3 32 -8 61 -11 64
-3 4 -3 -20 0 -53z"/>
<path d="M2313 1015 c6 -25 14 -45 18 -45 5 0 5 10 0 23 -10 25 -11 31 -11 52
0 8 -4 15 -9 15 -4 0 -4 -20 2 -45z"/>
<path d="M2332 940 c0 -14 2 -19 5 -12 2 6 2 18 0 25 -3 6 -5 1 -5 -13z"/>
<path d="M2330 874 c0 -8 5 -12 10 -9 6 4 8 11 5 16 -9 14 -15 11 -15 -7z"/>
<path d="M2330 830 c0 -11 4 -20 9 -20 5 0 7 9 4 20 -3 11 -7 20 -9 20 -2 0
-4 -9 -4 -20z"/>
<path d="M2381 768 c1 -32 6 -63 10 -69 4 -7 5 17 2 52 -7 81 -15 92 -12 17z"/>
<path d="M2335 791 c-3 -5 -2 -12 3 -15 5 -3 9 1 9 9 0 17 -3 19 -12 6z"/>
<path d="M2392 655 c0 -16 2 -22 5 -12 2 9 2 23 0 30 -3 6 -5 -1 -5 -18z"/>
<path d="M2280 596 c0 -14 4 -27 8 -30 5 -3 6 8 4 25 -5 35 -12 38 -12 5z"/>
<path d="M2394 580 c0 -11 4 -20 8 -20 4 0 8 9 8 20 0 11 -4 20 -8 20 -4 0 -8
-9 -8 -20z"/>
<path d="M2400 540 c0 -5 5 -10 11 -10 5 0 7 5 4 10 -3 6 -8 10 -11 10 -2 0
-4 -4 -4 -10z"/>
<path d="M2287 523 c-2 -5 0 -19 4 -33 7 -23 7 -22 6 8 -1 33 -3 37 -10 25z"/>
<path d="M2405 511 c-3 -5 -2 -12 3 -15 5 -3 9 1 9 9 0 17 -3 19 -12 6z"/>
<path d="M2413 421 c4 -35 9 -66 12 -70 3 -3 3 24 -1 59 -3 36 -9 67 -11 70
-3 3 -3 -24 0 -59z"/>
<path d="M2295 420 c-3 -5 -1 -10 4 -10 6 0 11 5 11 10 0 6 -2 10 -4 10 -3 0
-8 -4 -11 -10z"/>
<path d="M3001 389 c6 -19 13 -44 16 -56 3 -13 9 -23 13 -23 5 0 1 23 -9 50
-20 57 -36 80 -20 29z"/>
<path d="M2420 335 c0 -5 5 -17 10 -25 5 -8 10 -10 10 -5 0 6 -5 17 -10 25 -5
8 -10 11 -10 5z"/>
<path d="M1865 1320 c3 -19 7 -45 9 -56 2 -12 7 -38 10 -58 3 -19 12 -73 20
-118 8 -46 17 -103 21 -128 4 -25 9 -47 12 -50 4 -5 -2 67 -12 130 -2 14 -7
43 -9 65 -3 22 -10 63 -16 90 -6 28 -13 61 -15 75 -3 14 -10 39 -15 55 -10 30
-10 30 -5 -5z"/>
<path d="M1940 1284 c0 -10 5 -26 10 -34 7 -11 8 -8 6 13 -3 32 -16 49 -16 21z"/>
<path d="M1950 1220 c0 -5 5 -10 11 -10 5 0 7 5 4 10 -3 6 -8 10 -11 10 -2 0
-4 -4 -4 -10z"/>
<path d="M1967 1150 c3 -25 7 -47 9 -49 8 -9 2 55 -6 74 -6 13 -7 5 -3 -25z"/>
<path d="M1982 1056 c1 -20 5 -39 9 -42 7 -4 0 68 -8 76 -2 2 -3 -13 -1 -34z"/>
<path d="M1991 984 c0 -11 3 -14 6 -6 3 7 2 16 -1 19 -3 4 -6 -2 -5 -13z"/>
<path d="M1958 950 c2 -22 7 -40 11 -40 4 0 5 18 3 40 -2 22 -7 40 -11 40 -4
0 -5 -18 -3 -40z"/>
<path d="M1996 934 c6 -31 12 -86 13 -121 1 -13 6 -23 12 -23 6 0 8 8 5 18 -3
9 -8 44 -12 77 -3 33 -10 64 -15 69 -5 5 -6 -3 -3 -20z"/>
<path d="M1936 892 c-2 -4 -1 -14 5 -22 7 -12 9 -10 9 8 0 23 -5 28 -14 14z"/>
<path d="M1972 880 c0 -14 2 -19 5 -12 2 6 2 18 0 25 -3 6 -5 1 -5 -13z"/>
<path d="M1948 810 c2 -22 8 -42 12 -45 10 -6 1 66 -9 77 -4 4 -5 -10 -3 -32z"/>
<path d="M1978 815 c2 -19 6 -35 8 -35 2 0 4 16 4 35 0 19 -4 35 -8 35 -4 0
-6 -16 -4 -35z"/>
<path d="M2025 725 c3 -33 9 -62 11 -65 3 -3 3 22 0 55 -4 32 -9 62 -12 65 -3
3 -3 -22 1 -55z"/>
<path d="M1967 715 c3 -22 7 -42 9 -44 8 -9 2 45 -6 64 -7 14 -8 8 -3 -20z"/>
<path d="M1991 724 c0 -11 3 -14 6 -6 3 7 2 16 -1 19 -3 4 -6 -2 -5 -13z"/>
<path d="M1993 685 c0 -8 4 -12 9 -9 5 3 6 10 3 15 -9 13 -12 11 -12 -6z"/>
<path d="M1977 603 c3 -32 8 -62 13 -67 7 -7 6 36 -4 96 -6 44 -13 23 -9 -29z"/>
<path d="M2036 588 c3 -97 3 -98 15 -98 5 0 8 4 5 8 -3 5 -6 41 -7 80 -1 40
-5 72 -8 72 -4 0 -6 -28 -5 -62z"/>
<path d="M2012 540 c0 -19 2 -27 5 -17 2 9 2 25 0 35 -3 9 -5 1 -5 -18z"/>
</g>
</svg>
